<svg width="45" height="45" viewBox="0 0 45 45" fill="none" xmlns="http://www.w3.org/2000/svg">
<path d="M20.625 30.2812V35.3438C20.625 39.5625 18.9375 41.25 14.7187 41.25H9.65625C5.4375 41.25 3.75 39.5625 3.75 35.3438V30.2812C3.75 26.0625 5.4375 24.375 9.65625 24.375H14.7187C18.9375 24.375 20.625 26.0625 20.625 30.2812Z" stroke="#408CC6" stroke-width="1.5" stroke-linecap="round" stroke-linejoin="round"/>
<path d="M41.25 28.125C41.25 35.3812 35.3812 41.25 28.125 41.25L30.0937 37.9688" stroke="#408CC6" stroke-width="1.5" stroke-linecap="round" stroke-linejoin="round"/>
<path d="M3.75 16.875C3.75 9.61875 9.61875 3.75 16.875 3.75L14.9062 7.03125" stroke="#408CC6" stroke-width="1.5" stroke-linecap="round" stroke-linejoin="round"/>
<path d="M32.8125 20.625C37.4724 20.625 41.25 16.8474 41.25 12.1875C41.25 7.5276 37.4724 3.75 32.8125 3.75C28.1526 3.75 24.375 7.5276 24.375 12.1875C24.375 16.8474 28.1526 20.625 32.8125 20.625Z" stroke="#408CC6" stroke-width="1.5" stroke-linecap="round" stroke-linejoin="round"/>
</svg>
