<svg width="42" height="42" viewBox="0 0 42 42" fill="none" xmlns="http://www.w3.org/2000/svg">
<path d="M38.5 35.1225V21.315C38.5 11.515 30.625 3.5 21 3.5C11.375 3.5 3.5 11.515 3.5 21.315V35.1225C3.5 37.3275 4.81247 37.9225 6.42247 36.4525L8.17247 34.86C8.81997 34.265 9.87002 34.265 10.5175 34.86L14.0175 38.0625C14.665 38.6575 15.715 38.6575 16.3625 38.0625L19.8625 34.86C20.51 34.265 21.56 34.265 22.2075 34.86L25.7075 38.0625C26.355 38.6575 27.4051 38.6575 28.0526 38.0625L31.5526 34.86C32.2001 34.265 33.25 34.265 33.8975 34.86L35.6475 36.4525C37.1875 37.9225 38.5 37.3275 38.5 35.1225Z" stroke="#408CC6" stroke-width="1.5" stroke-linecap="round" stroke-linejoin="round"/>
<path d="M14 24.5C18.1475 27.615 23.8525 27.615 28 24.5" stroke="#408CC6" stroke-width="1.5" stroke-linecap="round" stroke-linejoin="round"/>
<path d="M21 19.25C22.933 19.25 24.5 17.683 24.5 15.75C24.5 13.817 22.933 12.25 21 12.25C19.067 12.25 17.5 13.817 17.5 15.75C17.5 17.683 19.067 19.25 21 19.25Z" stroke="#408CC6" stroke-width="1.5" stroke-linecap="round" stroke-linejoin="round"/>
</svg>
