<svg width="132" height="42" viewBox="0 0 132 42" fill="none" xmlns="http://www.w3.org/2000/svg">
<path d="M1.28888 37.8071C1.85838 35.8849 4.60523 26.6084 7.39298 17.1929L12.4616 0.0737305H15.4488C17.8001 0.0737305 18.4278 0.0974208 18.3975 0.185035C18.3764 0.24628 15.7295 9.13197 12.5155 19.9311C9.3015 30.7302 6.553 39.9565 6.40773 40.434L6.14361 41.3022H3.19851H0.253418L1.28888 37.8071Z" fill="white"/>
<path d="M0.298953 41.1464C0.325695 41.0607 3.01552 31.9746 6.27637 20.9551C9.53721 9.93562 12.2666 0.729334 12.3418 0.496697L12.4784 0.0737305H15.4333C17.0585 0.0737305 18.3887 0.103806 18.3892 0.140479C18.3898 0.177226 15.6365 9.45362 12.2708 20.7547L6.15134 41.3022H3.20085C0.431278 41.3022 0.253329 41.2923 0.298953 41.1464V41.1464Z" fill="white"/>
<path d="M0.298953 41.1464C0.325695 41.0607 3.01552 31.9746 6.27637 20.9551C9.53721 9.93562 12.2666 0.729334 12.3418 0.496697L12.4784 0.0737305H15.4333C17.0585 0.0737305 18.3887 0.103806 18.3892 0.140479C18.3898 0.177226 15.6365 9.45362 12.2708 20.7547L6.15134 41.3022H3.20085C0.431278 41.3022 0.253329 41.2923 0.298953 41.1464V41.1464Z" fill="white"/>
<path d="M32.9124 41.0487C35.6157 41.0487 37.8072 38.859 37.8072 36.1578C37.8072 33.4566 35.6157 31.2668 32.9124 31.2668C30.2091 31.2668 28.0176 33.4566 28.0176 36.1578C28.0176 38.859 30.2091 41.0487 32.9124 41.0487Z" fill="white"/>
<path d="M43.0161 41.0561H47.6477V35.7819L47.3372 32.0848L47.4665 32.0589L49.9246 38.3414H53.1072L55.5135 32.0589L55.6688 32.0848L55.3842 35.7819L55.3583 41.0561H60.0157V22.7515H55.3842L51.503 31.697L47.6477 22.7515H43.0161V41.0561Z" fill="white"/>
<path d="M67.6105 27.095H75.6834V22.7515H62.9272V41.0561H75.6834V36.6868H67.6105V33.9463H75.0366V29.9389H67.6105V27.095Z" fill="white"/>
<path d="M91.4639 27.1205V22.7253H77.0518V27.1205H81.9162V41.0559H86.5995V27.1205H91.4639Z" fill="white"/>
<path d="M11.8717 0H18.3471L6.47545 40.9787H0L11.8717 0Z" fill="white"/>
<path d="M20.5055 0H26.9809L15.1092 40.9787H8.63379L20.5055 0Z" fill="white"/>
<path d="M29.1397 0H35.6152L23.7435 40.9787H17.2681L29.1397 0Z" fill="white"/>
<path d="M92.4282 41.0749H101.446V39.1571H94.5579V22.6851H92.4282V41.0749Z" fill="white"/>
<path d="M114.046 35.1113L116.255 41.0749H118.411L111.522 22.6851H109.366L102.478 41.0749H104.633L106.842 35.1113H114.046ZM113.415 33.2723H107.499L110.444 25.0232L113.415 33.2723Z" fill="white"/>
<path d="M120.826 41.0749H126.452C129.607 41.0749 132 39.1571 132 35.8469C132 33.6139 130.764 32.0639 129.003 31.4334C130.449 30.6452 131.369 29.2266 131.369 27.3876C131.369 24.4715 129.397 22.6851 125.9 22.6851H120.826V41.0749ZM122.955 30.6452V24.5766H126.137C128.109 24.5766 129.187 25.7325 129.187 27.5452C129.187 29.4105 127.977 30.6452 126.137 30.6452H122.955ZM122.955 39.2096V32.4317H126.058C128.187 32.4317 129.791 33.3774 129.791 35.7944C129.791 38.1588 128.266 39.2096 126.084 39.2096H122.955Z" fill="white"/>
</svg>
