<svg width="45" height="45" viewBox="0 0 45 45" fill="none" xmlns="http://www.w3.org/2000/svg">
<path d="M22.5 22.5C27.6777 22.5 31.875 18.3027 31.875 13.125C31.875 7.94733 27.6777 3.75 22.5 3.75C17.3223 3.75 13.125 7.94733 13.125 13.125C13.125 18.3027 17.3223 22.5 22.5 22.5Z" stroke="#408CC6" stroke-width="1.5" stroke-linecap="round" stroke-linejoin="round"/>
<path d="M6.39355 41.25C6.39355 33.9938 13.6123 28.125 22.4998 28.125C24.2998 28.125 26.0436 28.3687 27.6748 28.8187" stroke="#408CC6" stroke-width="1.5" stroke-linecap="round" stroke-linejoin="round"/>
<path d="M41.25 33.75C41.25 35.1562 40.8563 36.4875 40.1625 37.6125C39.7688 38.2875 39.2625 38.8875 38.6813 39.375C37.3688 40.5562 35.6437 41.25 33.75 41.25C31.0125 41.25 28.6312 39.7875 27.3375 37.6125C26.6437 36.4875 26.25 35.1562 26.25 33.75C26.25 31.3875 27.3375 29.2688 29.0625 27.9C30.3562 26.8688 31.9875 26.25 33.75 26.25C37.8938 26.25 41.25 29.6062 41.25 33.75Z" stroke="#408CC6" stroke-width="1.5" stroke-miterlimit="10" stroke-linecap="round" stroke-linejoin="round"/>
<path d="M30.8252 33.7501L32.6814 35.6063L36.6752 31.9126" stroke="#408CC6" stroke-width="1.5" stroke-linecap="round" stroke-linejoin="round"/>
</svg>
