<svg width="42" height="42" viewBox="0 0 42 42" fill="none" xmlns="http://www.w3.org/2000/svg">
<path d="M5.86249 3.5H21.4375C22.7325 3.5 23.8 4.56751 23.8 5.86251V8.45248C23.8 9.39748 23.205 10.57 22.6275 11.165L17.5526 15.645C16.8526 16.24 16.38 17.4125 16.38 18.3575V23.4325C16.38 24.1325 15.9075 25.0775 15.3125 25.445L13.6675 26.5125C12.1275 27.4575 10.01 26.39 10.01 24.5V18.2525C10.01 17.43 9.53752 16.3625 9.06502 15.7675L4.58502 11.0425C3.99002 10.4475 3.51755 9.39749 3.51755 8.67999V5.96751C3.50005 4.56751 4.56749 3.5 5.86249 3.5Z" stroke="#408CC6" stroke-width="1.5" stroke-miterlimit="10" stroke-linecap="round" stroke-linejoin="round"/>
<path d="M3.5 20.9999V26.2499C3.5 34.9999 7 38.4999 15.75 38.4999H26.25C35 38.4999 38.5 34.9999 38.5 26.2499V15.7499C38.5 10.2899 37.135 6.85993 33.9675 5.07493C33.075 4.56743 31.29 4.18242 29.6625 3.91992" stroke="#408CC6" stroke-width="1.5" stroke-linecap="round" stroke-linejoin="round"/>
<path d="M22.75 22.75H31.5" stroke="#408CC6" stroke-width="1.5" stroke-linecap="round" stroke-linejoin="round"/>
<path d="M19.25 29.75H31.5" stroke="#408CC6" stroke-width="1.5" stroke-linecap="round" stroke-linejoin="round"/>
</svg>
