<svg width="146" height="42" viewBox="0 0 146 42" fill="none" xmlns="http://www.w3.org/2000/svg">
<path d="M36.6448 41.0485C39.6151 41.0485 42.023 38.8587 42.023 36.1575C42.023 33.4564 39.6151 31.2666 36.6448 31.2666C33.6745 31.2666 31.2666 33.4564 31.2666 36.1575C31.2666 38.8587 33.6745 41.0485 36.6448 41.0485Z" fill="#1A75BB"/>
<path d="M47.7466 40.9703H52.8256V35.7063L52.4851 32.0164L52.627 31.9905L55.3226 38.2608H58.8127L61.4515 31.9905L61.6218 32.0164L61.3096 35.7063L61.2813 40.9703H66.3887V22.7012H61.3096L57.0534 31.6293L52.8256 22.7012H47.7466V40.9703Z" fill="#1A75BB"/>
<path d="M74.7173 27.0362H83.5702V22.7012H69.5815V40.9703H83.5702V36.6094H74.7173V33.8742H82.8608V29.8746H74.7173V27.0362Z" fill="#1A75BB"/>
<path d="M100.875 27.0619V22.6753H85.0708V27.0619H90.4052V40.9702H95.541V27.0619H100.875Z" fill="#1A75BB"/>
<path d="M13.5262 0H20.6412L7.59711 40.9787H0.482178L13.5262 0Z" fill="#1A75BB" fill-opacity="0.981366"/>
<path d="M23.0128 0H30.1277L17.0837 40.9787H9.96875L23.0128 0Z" fill="#1A75BB" fill-opacity="0.981366"/>
<path d="M32.4994 0H39.6144L26.5703 40.9787H19.4553L32.4994 0Z" fill="#1A75BB" fill-opacity="0.981366"/>
<path d="M102.038 41.0749H111.947V39.1571H104.378V22.6851H102.038V41.0749Z" fill="#0E0E0E"/>
<path d="M125.791 35.1113L128.218 41.0749H130.587L123.018 22.6851H120.649L113.08 41.0749H115.449L117.876 35.1113H125.791ZM125.098 33.2723H118.598L121.833 25.0232L125.098 33.2723Z" fill="#0E0E0E"/>
<path d="M133.24 41.0749H139.422C142.889 41.0749 145.518 39.1571 145.518 35.8469C145.518 33.6139 144.16 32.0639 142.225 31.4334C143.813 30.6452 144.825 29.2266 144.825 27.3876C144.825 24.4715 142.658 22.6851 138.816 22.6851H133.24V41.0749ZM135.58 30.6452V24.5766H139.076C141.242 24.5766 142.427 25.7325 142.427 27.5452C142.427 29.4105 141.098 30.6452 139.076 30.6452H135.58ZM135.58 39.2096V32.4317H138.989C141.329 32.4317 143.091 33.3774 143.091 35.7944C143.091 38.1588 141.416 39.2096 139.018 39.2096H135.58Z" fill="#0E0E0E"/>
</svg>
