<svg width="189" height="60" viewBox="0 0 189 60" fill="none" xmlns="http://www.w3.org/2000/svg">
<path d="M1.84538 54.0103C2.6608 51.2642 6.59379 38.0122 10.5854 24.5614L17.8427 0.105469H22.1198C25.4864 0.105469 26.3852 0.139312 26.3419 0.264475C26.3116 0.351968 22.5217 13.0458 17.9199 28.4731C13.318 43.9004 9.38266 57.0809 9.17465 57.763L8.79647 59.0033H4.57963H0.362793L1.84538 54.0103Z" fill="white"/>
<path d="M0.42828 58.7807C0.466569 58.6582 4.31791 45.6782 8.98685 29.936C13.6558 14.1939 17.5638 1.04204 17.6714 0.709707L17.867 0.105469H22.0979C24.4249 0.105469 26.3295 0.148433 26.3303 0.200824C26.3311 0.25332 22.3889 13.5053 17.5698 29.6497L8.80784 59.0033H4.58326C0.617745 59.0033 0.362955 58.9891 0.42828 58.7806V58.7807Z" fill="white"/>
<path d="M0.42828 58.7807C0.466569 58.6582 4.31791 45.6782 8.98685 29.936C13.6558 14.1939 17.5638 1.04204 17.6714 0.709707L17.867 0.105469H22.0979C24.4249 0.105469 26.3295 0.148433 26.3303 0.200824C26.3311 0.25332 22.3889 13.5053 17.5698 29.6497L8.80784 59.0033H4.58326C0.617745 59.0033 0.362955 58.9891 0.42828 58.7806V58.7807Z" fill="white"/>
<path d="M47.1245 58.6411C50.9952 58.6411 54.133 55.5129 54.133 51.6541C54.133 47.7952 50.9952 44.667 47.1245 44.667C43.2538 44.667 40.116 47.7952 40.116 51.6541C40.116 55.5129 43.2538 58.6411 47.1245 58.6411Z" fill="white"/>
<path d="M61.5916 58.6515H68.2231V51.1169L67.7785 45.8353L67.9638 45.7983L71.4833 54.7734H76.0402L79.4856 45.7983L79.7079 45.8353L79.3004 51.1169L79.2633 58.6515H85.9319V32.502H79.3004L73.7432 45.2812L68.2231 32.502H61.5916V58.6515Z" fill="white"/>
<path d="M96.8065 38.7069H108.365V32.502H90.1008V58.6515H108.365V52.4096H96.8065V48.4945H107.439V42.7697H96.8065V38.7069Z" fill="white"/>
<path d="M130.96 38.7437V32.4648H110.325V38.7437H117.29V58.6513H123.995V38.7437H130.96Z" fill="white"/>
<path d="M16.9981 0H26.2697L9.27167 58.5409H0L16.9981 0Z" fill="white"/>
<path d="M29.3604 0H38.632L21.634 58.5409H12.3623L29.3604 0Z" fill="white"/>
<path d="M41.7225 0H50.9942L33.996 58.5409H24.7244L41.7225 0Z" fill="white"/>
<path d="M132.341 58.6784H145.253V55.9387H135.39V32.4072H132.341V58.6784Z" fill="white"/>
<path d="M163.293 50.159L166.455 58.6784H169.542L159.679 32.4072H156.592L146.729 58.6784H149.816L152.978 50.159H163.293ZM162.39 47.5319H153.92L158.136 35.7474L162.39 47.5319Z" fill="white"/>
<path d="M173 58.6784H181.057C185.574 58.6784 189 55.9387 189 51.2099C189 48.0198 187.23 45.8055 184.708 44.9048C186.779 43.7789 188.096 41.7523 188.096 39.1252C188.096 34.9593 185.273 32.4072 180.266 32.4072H173V58.6784ZM176.05 43.7789V35.1094H180.605C183.428 35.1094 184.972 36.7607 184.972 39.3503C184.972 42.015 183.24 43.7789 180.605 43.7789H176.05ZM176.05 56.0138V46.331H180.492C183.541 46.331 185.838 47.682 185.838 51.1348C185.838 54.5126 183.654 56.0138 180.53 56.0138H176.05Z" fill="white"/>
</svg>
